<svg xmlns="http://www.w3.org/2000/svg" viewBox="0 0 1000 1000"><rect width="1000" height="1000" rx="224" fill="#1E647E"/><path fill="#FFFFFF" d="M395 700L395 160L265 160L265 700Q265 745.2 278.3 779.6Q285.7 799 297.3 814.6Q309.7 831.4 326.3 843.1Q343 854.9 362.9 860.8Q381.4 866.2 401.7 866.2Q437.1 866.2 475.6 849.7Q487.7 844.5 500 837.7Q510.4 832 521.3 824.7Q530 819 540.1 811.6Q545.8 807.4 556.7 799.3Q565.5 792.6 569.7 789.5Q576.3 784.7 581.4 781.3Q592.5 773.8 601 769.8Q609 766.1 616.1 764.8Q623.5 763.4 631.9 764.5Q639 765.4 645.2 767.9Q651 770.2 657 774.3Q663.1 778.5 670.6 785.4Q674 788.6 678.4 792.8Q681.2 795.6 686.9 801.4Q692.2 806.7 694.9 809.4Q699.8 814.2 703.8 818Q715 828.5 725.2 836Q739.1 846.3 753.5 853Q770.8 861 789.3 864.1L810.7 735.9Q807.7 735.4 802.5 731.5Q798.4 728.5 792.7 723.2Q788.5 719.2 779.3 709.9Q773 703.5 769.6 700.2Q763.6 694.3 758.4 689.6Q744.3 676.6 730.6 667.2Q712.8 654.9 693.7 647.3Q671.9 638.5 648.1 635.5Q620 632 593 636.9Q569.2 641.1 545.9 652.1Q528.1 660.4 508.6 673.6Q501.4 678.4 492.9 684.7Q488 688.3 478.5 695.4Q468.5 703 463.6 706.5Q455.9 712.2 449.7 716.2Q435.9 725.3 424.4 730.3Q416.6 733.6 410 735.1Q405.2 736.2 401.7 736.2Q401.4 736.2 401.1 736.2Q400.3 734.9 399.6 732.9Q397.6 727.8 396.5 720.6Q395 711.5 395 700Z"/></svg>
